<svg width="24" height="24" viewBox="0 0 24 24" fill="none" xmlns="http://www.w3.org/2000/svg">
<path d="M20 3H4C2.9 3 2 3.9 2 5V17C2 18.1 2.9 19 4 19H8V20C8 20.55 8.45 21 9 21H15C15.55 21 16 20.55 16 20V19H20C21.1 19 21.99 18.1 21.99 17L22 5C22 3.9 21.1 3 20 3ZM20 17H4V5H20V17ZM7 15.97C6.99051 15.4505 6.77991 14.9549 6.4125 14.5875C6.04509 14.2201 5.54951 14.0095 5.03 14H5V16H7V15.97ZM5.62 12.55C7.06 12.81 8.2 13.95 8.45 15.39C8.51 15.75 8.82 16 9.18 16C9.64 16 10 15.59 9.93 15.14C9.75261 14.128 9.26766 13.1953 8.54118 12.4688C7.8147 11.7423 6.88197 11.2574 5.87 11.08C5.76268 11.0619 5.65271 11.0675 5.54779 11.0964C5.44287 11.1253 5.34555 11.1769 5.26265 11.2474C5.17975 11.3179 5.11329 11.4057 5.06791 11.5046C5.02254 11.6035 4.99936 11.7112 5 11.82C5 12.19 5.26 12.49 5.62 12.55ZM5.64 9.53C8.71 9.83 11.16 12.28 11.47 15.35C11.51 15.72 11.84 16 12.21 16C12.66 16 13 15.6 12.96 15.15C12.7644 13.3323 11.9521 11.6365 10.6585 10.3447C9.36492 9.05292 7.66793 8.24309 5.85 8.05C5.74446 8.03677 5.63731 8.04595 5.53556 8.07696C5.43381 8.10796 5.33975 8.16009 5.25953 8.22993C5.1793 8.29978 5.11472 8.38576 5.07 8.48227C5.02528 8.57878 5.00142 8.68364 5 8.79C5 9.16 5.27 9.5 5.64 9.53Z" fill="white"/>
</svg>
