<svg width="24" height="24" viewBox="0 0 24 24" fill="none" xmlns="http://www.w3.org/2000/svg">
    <path fill-rule="evenodd" clip-rule="evenodd"
        d="M16.8001 3.42871C18.7203 3.42871 19.6803 3.42871 20.4138 3.8024C21.0589 4.13111 21.5834 4.65562 21.9121 5.30074C22.2858 6.03416 22.2858 6.99425 22.2858 8.91443V12.5144C22.2858 14.4346 22.2858 15.3947 21.9121 16.1281C21.5834 16.7732 21.0589 17.2977 20.4138 17.6264C19.6803 18.0001 18.7203 18.0001 16.8001 18.0001L15.8572 18.0001L16.8284 19.1657C17.2937 19.724 16.8967 20.5716 16.17 20.5716L7.83004 20.5716C7.10333 20.5716 6.70633 19.724 7.17157 19.1657L8.14286 18.0001L7.20007 18.0001C5.27989 18.0001 4.3198 18.0001 3.58639 17.6264C2.94126 17.2977 2.41676 16.7732 2.08805 16.1281C1.71436 15.3947 1.71436 14.4346 1.71436 12.5144L1.71436 8.91442C1.71436 6.99424 1.71436 6.03415 2.08805 5.30074C2.41676 4.65562 2.94126 4.13111 3.58639 3.8024C4.3198 3.42871 5.27989 3.42871 7.20007 3.42871L16.8001 3.42871ZM20.5715 8.91443V12.5144C20.5715 13.5028 20.5702 14.141 20.5305 14.6267C20.4924 15.0924 20.4278 15.2651 20.3847 15.3498C20.2203 15.6724 19.958 15.9347 19.6355 16.099C19.5507 16.1422 19.3781 16.2068 18.9124 16.2448C18.4266 16.2845 17.7884 16.2859 16.8001 16.2859L7.20007 16.2859C6.21169 16.2859 5.57351 16.2845 5.08779 16.2448C4.62208 16.2068 4.44942 16.1422 4.36466 16.099C4.04209 15.9347 3.77984 15.6724 3.61549 15.3498C3.5723 15.2651 3.50771 15.0924 3.46966 14.6267C3.42997 14.141 3.42864 13.5028 3.42864 12.5144L3.42864 8.91442C3.42864 7.92605 3.42997 7.28786 3.46966 6.80214C3.50771 6.33643 3.5723 6.16377 3.61549 6.07901C3.77984 5.75645 4.04209 5.4942 4.36466 5.32984C4.44942 5.28665 4.62208 5.22206 5.08779 5.18401C5.57351 5.14433 6.21169 5.143 7.20007 5.143L16.8001 5.143C17.7884 5.143 18.4266 5.14433 18.9124 5.18401C19.3781 5.22206 19.5507 5.28665 19.6355 5.32984C19.958 5.4942 20.2203 5.75645 20.3847 6.07901C20.4278 6.16377 20.4924 6.33644 20.5305 6.80214C20.5702 7.28786 20.5715 7.92605 20.5715 8.91443Z"
        fill="white" />
</svg>
