<svg width="48" height="48" viewBox="0 0 48 48" fill="none" xmlns="http://www.w3.org/2000/svg">
    <path
        d="M23.4998 10.4882V6.7001C23.4998 6.57068 23.5356 6.4438 23.6034 6.33354C23.8058 6.00419 24.237 5.9013 24.5663 6.10374L33.1695 11.3918C33.2631 11.4493 33.3418 11.528 33.3993 11.6216C33.6018 11.951 33.4989 12.3821 33.1695 12.5845L24.5663 17.8726C24.4561 17.9403 24.3292 17.9762 24.1998 17.9762C23.8132 17.9762 23.4998 17.6628 23.4998 17.2762V13.4882C16.5962 13.4882 10.9998 19.0846 10.9998 25.9882C10.9998 32.8917 16.5962 38.4882 23.4998 38.4882C29.5361 38.4882 34.6801 34.1776 35.7835 28.3168C35.9368 27.5027 36.721 26.967 37.5351 27.1202C38.3493 27.2735 38.885 28.0578 38.7317 28.8719C37.3625 36.1443 30.9853 41.4882 23.4998 41.4882C14.9393 41.4882 7.99976 34.5486 7.99976 25.9882C7.99976 17.4277 14.9393 10.4882 23.4998 10.4882Z"
        fill="white" />
    <path fill-rule="evenodd" clip-rule="evenodd"
        d="M26.7429 20.5714C29.2045 20.5714 31.2059 21.9745 31.2 26.2286C31.1941 30.4827 29.2045 31.8857 26.7429 31.8857C24.2813 31.8857 22.2814 30.4827 22.2858 26.2286C22.2901 21.9745 24.2813 20.5714 26.7429 20.5714ZM26.748 23.0431C25.5169 23.0431 24.8327 23.8616 24.8327 26.3345C24.8327 28.8075 25.5058 29.626 26.748 29.626C27.9901 29.626 28.6633 28.8086 28.6633 26.3345C28.6633 23.8605 27.9791 23.0431 26.748 23.0431Z"
        fill="white" />
    <path
        d="M17.9545 31.0007C17.9545 31.3948 18.2712 31.7143 18.6618 31.7143H19.8642C20.2548 31.7143 20.5715 31.3948 20.5715 31.0007V21.2858C20.5715 20.7749 20.055 20.4296 19.5887 20.6286L15.8604 22.2196C15.5987 22.3313 15.4286 22.5901 15.4286 22.8768V23.8688C15.4286 24.2712 15.8301 24.5473 16.2013 24.4002L17.9545 23.7053V31.0007Z"
        fill="white" />
</svg>
