<svg width="24" height="24" viewBox="0 0 24 24" fill="none" xmlns="http://www.w3.org/2000/svg">
    <g clip-path="url(#clip0_2959_31541)">
        <path
            d="M8.15025 23.7541C7.73625 23.7541 7.40025 23.4188 7.40025 23.0041V16.3898H0.75C0.336 16.3898 0 16.0546 0 15.6398C0 15.2251 0.336 14.8898 0.75 14.8898H8.15025C8.56425 14.8898 8.90025 15.2251 8.90025 15.6398V23.0041C8.90025 23.4188 8.56425 23.7541 8.15025 23.7541ZM15.8497 23.7353C15.4358 23.7353 15.0997 23.4001 15.0997 22.9853V15.5843C15.0997 15.1696 15.4358 14.8343 15.8497 14.8343H23.214C23.628 14.8343 23.964 15.1696 23.964 15.5843C23.964 15.9991 23.628 16.3343 23.214 16.3343H16.5998V22.9853C16.5998 23.4001 16.2638 23.7353 15.8497 23.7353ZM8.15025 9.16584H0.786C0.372 9.16584 0.036 8.83059 0.036 8.41584C0.036 8.00109 0.372 7.66584 0.786 7.66584H7.40025V1.01484C7.40025 0.600094 7.73625 0.264844 8.15025 0.264844C8.56425 0.264844 8.90025 0.600094 8.90025 1.01484V8.41584C8.90025 8.82984 8.56425 9.16584 8.15025 9.16584ZM23.25 9.11034H15.8497C15.4358 9.11034 15.0997 8.77509 15.0997 8.36034V0.996094C15.0997 0.581344 15.4358 0.246094 15.8497 0.246094C16.2638 0.246094 16.5998 0.581344 16.5998 0.996094V7.61034H23.25C23.664 7.61034 24 7.94559 24 8.36034C24 8.77509 23.664 9.11034 23.25 9.11034Z"
            fill="white" />
    </g>
    <defs>
        <clipPath id="clip0_2959_31541">
            <rect width="24" height="24" fill="white" />
        </clipPath>
    </defs>
</svg>
