<svg width="56" height="57" viewBox="0 0 56 57" fill="none" xmlns="http://www.w3.org/2000/svg">
    <path
        d="M20.3272 12.1667C21.3725 12.1667 21.7516 12.2756 22.1337 12.48C22.5159 12.6843 22.8158 12.9842 23.0202 13.3664C23.2245 13.7485 23.3334 14.1276 23.3334 15.1729V41.8273C23.3334 42.8726 23.2245 43.2516 23.0202 43.6338C22.8158 44.0159 22.5159 44.3158 22.1337 44.5202C21.7516 44.7246 21.3725 44.8334 20.3272 44.8334H15.8395C14.7942 44.8334 14.4152 44.7246 14.033 44.5202C13.6509 44.3158 13.351 44.0159 13.1466 43.6338C12.9422 43.2516 12.8334 42.8726 12.8334 41.8273V15.1729C12.8334 14.1276 12.9422 13.7485 13.1466 13.3664C13.351 12.9842 13.6509 12.6843 14.033 12.48C14.4152 12.2756 14.7942 12.1667 15.8395 12.1667H20.3272ZM38.9939 12.1667C40.0392 12.1667 40.4182 12.2756 40.8004 12.48C41.1825 12.6843 41.4825 12.9842 41.6868 13.3664C41.8912 13.7485 42 14.1276 42 15.1729V41.8273C42 42.8726 41.8912 43.2516 41.6868 43.6338C41.4825 44.0159 41.1825 44.3158 40.8004 44.5202C40.4182 44.7246 40.0392 44.8334 38.9939 44.8334H34.5062C33.4609 44.8334 33.0818 44.7246 32.6997 44.5202C32.3175 44.3158 32.0176 44.0159 31.8133 43.6338C31.6089 43.2516 31.5 42.8726 31.5 41.8273V15.1729C31.5 14.1276 31.6089 13.7485 31.8133 13.3664C32.0176 12.9842 32.3175 12.6843 32.6997 12.48C33.0818 12.2756 33.4609 12.1667 34.5062 12.1667H38.9939Z"
        fill="white" />
</svg>
