<svg width="24" height="24" viewBox="0 0 24 24" fill="none" xmlns="http://www.w3.org/2000/svg">
    <path
        d="M11 4.07005V2.05005C8.99005 2.25005 7.16005 3.05005 5.68005 4.26005L7.10005 5.69005C8.21005 4.83005 9.54005 4.25005 11 4.07005ZM5.69005 7.10005L4.26005 5.68005C3.05005 7.16005 2.25005 8.99005 2.05005 11H4.07005C4.25005 9.54005 4.83005 8.21005 5.69005 7.10005ZM2.05005 13C2.25005 15.01 3.05005 16.84 4.26005 18.32L5.69005 16.89C4.83005 15.79 4.25005 14.46 4.07005 13H2.05005ZM11 21.9501V19.93C9.54005 19.75 8.21005 19.17 7.10005 18.31L5.68005 19.74C7.16005 20.9501 9.00005 21.75 11 21.9501ZM13.05 2.05005C18.08 2.58005 22 6.84005 22 12C22 17.16 18.08 21.42 13.05 21.9501V19.93C16.97 19.41 20 16.05 20 12C20 7.95005 16.97 4.59005 13.05 4.07005V2.05005ZM10.292 8.46972C10.4309 8.46972 10.5673 8.50623 10.6876 8.57559L15.4342 11.3123C15.8132 11.5307 15.9432 12.0151 15.7248 12.394C15.6552 12.5147 15.5549 12.6149 15.4342 12.6845L10.6876 15.4212C10.3087 15.6397 9.8244 15.5096 9.60592 15.1307C9.53656 15.0104 9.50005 14.8739 9.50005 14.7351V9.26172C9.50005 8.82431 9.85464 8.46972 10.292 8.46972Z"
        fill="white" />
</svg>
