<svg width="40" height="40" viewBox="0 0 40 40" fill="none" xmlns="http://www.w3.org/2000/svg">
    <path
        d="M10 6.66665V33.3333C9.99992 33.6299 10.079 33.9211 10.229 34.1769C10.379 34.4327 10.5945 34.6438 10.8534 34.7885C11.1122 34.9333 11.405 35.0063 11.7015 35.0001C11.998 34.9939 12.2874 34.9087 12.54 34.7533L34.2067 21.42C34.4493 21.2709 34.6497 21.0621 34.7888 20.8135C34.9278 20.5649 35.0008 20.2848 35.0008 20C35.0008 19.7152 34.9278 19.4351 34.7888 19.1865C34.6497 18.9379 34.4493 18.7291 34.2067 18.58L12.54 5.24665C12.2874 5.09126 11.998 5.00607 11.7015 4.99988C11.405 4.99368 11.1122 5.06671 10.8534 5.21142C10.5945 5.35613 10.379 5.56728 10.229 5.82309C10.079 6.0789 9.99992 6.3701 10 6.66665Z"
        fill="white" />
</svg>
