<svg width="48" height="48" viewBox="0 0 48 48" fill="none" xmlns="http://www.w3.org/2000/svg">
    <path
        d="M39.6856 21.9216C40.867 22.6037 41.4577 22.9447 41.656 23.39C41.8289 23.7783 41.8289 24.2218 41.656 24.6102C41.4577 25.0554 40.867 25.3965 39.6856 26.0785L17.3142 38.9947C16.1328 39.6768 15.5421 40.0178 15.0574 39.9669C14.6346 39.9224 14.2506 39.7007 14.0007 39.3567C13.7142 38.9625 13.7142 38.2804 13.7142 36.9162L13.7142 11.0839C13.7142 9.71977 13.7142 9.0377 14.0007 8.6434C14.2506 8.29948 14.6346 8.07773 15.0574 8.03329C15.5421 7.98235 16.1328 8.32339 17.3142 9.00546L39.6856 21.9216Z"
        fill="white" />
</svg>
