<svg width="48" height="48" viewBox="0 0 48 48" fill="none" xmlns="http://www.w3.org/2000/svg">
    <path
        d="M23.2579 6.70037C23.2579 6.15291 22.6577 5.81734 22.1913 6.10402L13.5881 11.3921C13.1435 11.6653 13.1435 12.3115 13.5881 12.5848L22.1913 17.8728C22.6577 18.1595 23.2579 17.8239 23.2579 17.2765L23.2579 13.4884C30.1614 13.4884 35.7579 19.0849 35.7579 25.9884C35.7579 32.892 30.1614 38.4884 23.2579 38.4884C17.2216 38.4884 12.0775 34.1779 10.9741 28.3171C10.8209 27.503 10.0366 26.9672 9.2225 27.1205C8.40837 27.2738 7.87265 28.058 8.02592 28.8722C9.39511 36.1446 15.7723 41.4884 23.2579 41.4884C31.8183 41.4884 38.7579 34.5488 38.7579 25.9884C38.7579 17.428 31.8183 10.4884 23.2579 10.4884L23.2579 6.70037Z"
        fill="white" />
    <path fill-rule="evenodd" clip-rule="evenodd"
        d="M26.7429 20.5715C29.2045 20.5715 31.2059 21.9746 31.2 26.2287C31.1941 30.4828 29.2045 31.8858 26.7429 31.8858C24.2813 31.8858 22.2814 30.4828 22.2858 26.2287C22.2901 21.9746 24.2813 20.5715 26.7429 20.5715ZM26.748 23.0432C25.5169 23.0432 24.8327 23.8617 24.8327 26.3347C24.8327 28.8076 25.5058 29.6261 26.748 29.6261C27.9901 29.6261 28.6633 28.8087 28.6633 26.3347C28.6633 23.8606 27.9791 23.0432 26.748 23.0432Z"
        fill="white" />
    <path
        d="M17.9545 31.0008C17.9545 31.3949 18.2712 31.7144 18.6618 31.7144H19.8642C20.2548 31.7144 20.5715 31.3949 20.5715 31.0008V21.2859C20.5715 20.775 20.055 20.4297 19.5887 20.6287L15.8604 22.2197C15.5987 22.3314 15.4286 22.5902 15.4286 22.8769V23.8689C15.4286 24.2713 15.8301 24.5474 16.2013 24.4003L17.9545 23.7054V31.0008Z"
        fill="white" />
</svg>
