<svg width="32" height="32" viewBox="0 0 32 32" fill="none" xmlns="http://www.w3.org/2000/svg">
    <path d="M9.33337 12L5.33337 8L9.33337 4" stroke="#BFBFBF" stroke-width="2"
        stroke-linecap="round" stroke-linejoin="round" />
    <path
        d="M21.3294 23.8907C23.3041 23.5528 25.0803 22.4865 26.3069 20.9025C27.5336 19.3185 28.1215 17.332 27.9545 15.3355C27.7875 13.339 26.8777 11.4778 25.4049 10.1197C23.9321 8.76147 22.0035 8.0051 20 8H5.33337M8.00004 18.6667V26.6667M12 20.6667V24.6667C12 25.1971 12.2108 25.7058 12.5858 26.0809C12.9609 26.456 13.4696 26.6667 14 26.6667C14.5305 26.6667 15.0392 26.456 15.4143 26.0809C15.7893 25.7058 16 25.1971 16 24.6667V20.6667C16 20.1362 15.7893 19.6275 15.4143 19.2525C15.0392 18.8774 14.5305 18.6667 14 18.6667C13.4696 18.6667 12.9609 18.8774 12.5858 19.2525C12.2108 19.6275 12 20.1362 12 20.6667Z"
        stroke="#BFBFBF" stroke-width="2" stroke-linecap="round" stroke-linejoin="round" />
</svg>
