<svg width="24" height="24" viewBox="0 0 24 24" fill="none" xmlns="http://www.w3.org/2000/svg">
    <path fill-rule="evenodd" clip-rule="evenodd"
        d="M15.9621 2.58047C15.9776 2.49011 16.0106 2.40369 16.0595 2.32613C16.1083 2.24857 16.172 2.18139 16.2468 2.12843C16.3216 2.07548 16.4061 2.03778 16.4955 2.0175C16.5848 1.99722 16.6773 1.99475 16.7677 2.01023C19.7443 2.51628 21.9991 5.13581 21.9991 8.28C21.9988 8.40655 21.9642 8.53065 21.8988 8.63902C21.8335 8.74739 21.7399 8.83594 21.6281 8.8952C21.5163 8.95445 21.3905 8.98217 21.2641 8.9754C21.1377 8.96863 21.0156 8.92761 20.9107 8.85674L19.5155 7.91349C19.4367 7.86345 19.3688 7.79813 19.3158 7.72138C19.2627 7.64464 19.2256 7.55803 19.2066 7.46669C19.1876 7.37534 19.1871 7.28112 19.2052 7.18959C19.2233 7.09805 19.2595 7.01107 19.3118 6.93379C19.364 6.85651 19.4313 6.7905 19.5095 6.73966C19.5877 6.68882 19.6753 6.65418 19.7672 6.63781C19.859 6.62143 19.9532 6.62364 20.0442 6.64431C20.1352 6.66498 20.2211 6.70369 20.2968 6.75814L20.3898 6.82047C19.8531 5.04372 18.362 3.69674 16.5333 3.38512C16.351 3.35395 16.1886 3.2517 16.0816 3.10081C15.9747 2.94993 15.9311 2.76277 15.9621 2.58047ZM8.57551 3.92186C8.03693 4.33302 7.40626 4.96186 6.49933 5.86791L5.86866 6.49954C4.96265 7.40558 4.33384 8.03628 3.9227 8.57581C3.52365 9.09767 3.39621 9.45116 3.39621 9.79163C3.39621 10.1321 3.52365 10.4856 3.9227 11.0084C4.33384 11.547 4.96265 12.1777 5.86866 13.0847L10.9168 18.1321C11.8228 19.0381 12.4535 19.667 12.992 20.0781C13.5157 20.4781 13.8683 20.6047 14.2087 20.6047C14.5492 20.6047 14.9027 20.4772 15.4254 20.0781C15.964 19.667 16.5947 19.0381 17.5016 18.1321L18.1323 17.5014C19.0383 16.5944 19.6671 15.9637 20.0782 15.4251C20.4773 14.9023 20.6047 14.5488 20.6047 14.2084C20.6047 13.8679 20.4773 13.5153 20.0782 12.9926C19.6671 12.453 19.0383 11.8223 18.1323 10.9163L13.0841 5.86791C12.1781 4.96186 11.5475 4.33302 11.0089 3.92186C10.4852 3.52279 10.1326 3.39535 9.7922 3.39535C9.45175 3.39535 9.09827 3.52279 8.57551 3.92186ZM7.72904 2.81209C8.37645 2.31907 9.02386 2 9.7922 2C10.5605 2 11.2079 2.31907 11.8544 2.81209C12.4777 3.28651 13.1734 3.98419 14.0357 4.84558L19.1546 9.96558C20.0168 10.827 20.7135 11.5237 21.1879 12.146C21.6809 12.7926 22 13.44 22 14.2084C22 14.9767 21.6809 15.6242 21.1879 16.2716C20.7135 16.893 20.0159 17.5898 19.1546 18.4521L18.4523 19.1544C17.59 20.0167 16.8933 20.7135 16.271 21.1879C15.6245 21.6809 14.9771 22 14.2087 22C13.4404 22 12.793 21.6809 12.1465 21.1879C11.5233 20.7135 10.8275 20.0158 9.96614 19.1544L4.84638 14.0353C3.98409 13.173 3.28738 12.4763 2.81299 11.854C2.31999 11.2074 2.00093 10.56 2.00093 9.79163C2.00093 9.02326 2.31999 8.37581 2.81299 7.7293C3.28738 7.10605 3.98502 6.41023 4.84638 5.54884L5.54867 4.84558C6.41096 3.98419 7.10674 3.28744 7.72904 2.81209ZM9.65453 5.51256C9.78517 5.64337 9.85856 5.8207 9.85856 6.00558C9.85856 6.19047 9.78517 6.36779 9.65453 6.4986L6.4984 9.65488C6.43453 9.72343 6.35751 9.77841 6.27193 9.81654C6.18635 9.85467 6.09397 9.87518 6.0003 9.87683C5.90663 9.87848 5.81358 9.86125 5.72671 9.82616C5.63984 9.79107 5.56093 9.73884 5.49469 9.67259C5.42844 9.60634 5.37621 9.52743 5.34113 9.44056C5.30604 9.35368 5.28881 9.26063 5.29046 9.16696C5.29211 9.07328 5.31262 8.98089 5.35075 8.89531C5.38888 8.80973 5.44385 8.73271 5.51239 8.66884L8.66667 5.51349C8.79747 5.38284 8.97479 5.30945 9.15967 5.30945C9.34454 5.30945 9.52186 5.38284 9.65267 5.51349L9.65453 5.51256ZM2.37022 15.1042C2.48201 15.0446 2.60792 15.0166 2.73443 15.0231C2.86094 15.0297 2.98328 15.0706 3.08832 15.1414L4.48361 16.0856C4.63104 16.1916 4.73135 16.3509 4.76323 16.5296C4.7951 16.7084 4.75603 16.8925 4.6543 17.0429C4.55258 17.1934 4.39622 17.2982 4.21845 17.3352C4.04068 17.3721 3.8555 17.3383 3.70225 17.2409L3.60923 17.1786C4.14595 18.9553 5.63704 20.3023 7.46579 20.614C7.55613 20.6293 7.64254 20.6624 7.72011 20.7112C7.79768 20.76 7.86487 20.8236 7.91787 20.8983C7.97086 20.9731 8.00861 21.0575 8.02895 21.1469C8.0493 21.2362 8.05186 21.3287 8.03646 21.4191C8.02107 21.5094 7.98804 21.5958 7.93925 21.6734C7.89046 21.751 7.82687 21.8182 7.75211 21.8712C7.67736 21.9242 7.59289 21.9619 7.50354 21.9823C7.4142 22.0026 7.32172 22.0052 7.23138 21.9898C4.25478 21.4828 2 18.8633 2 15.72C2.00004 15.5934 2.03452 15.4692 2.09974 15.3608C2.16495 15.2523 2.25845 15.1636 2.37022 15.1042Z"
        fill="white" />
</svg>
