<svg width="24" height="24" viewBox="0 0 24 24" fill="none" xmlns="http://www.w3.org/2000/svg">
    <path
        d="M3.85714 5.1001C3.38376 5.1001 3 5.50304 3 6.0001C3 6.49715 3.38376 6.9001 3.85714 6.9001H18.1429C18.6162 6.9001 19 6.49715 19 6.0001C19 5.50304 18.6162 5.1001 18.1429 5.1001H3.85714Z"
        fill="white" />
    <path
        d="M3.86932 10.1001C3.38921 10.1001 3 10.503 3 11.0001C3 11.4972 3.38921 11.9001 3.86932 11.9001H11.1307C11.6108 11.9001 12 11.4972 12 11.0001C12 10.503 11.6108 10.1001 11.1307 10.1001H3.86932Z"
        fill="white" />
    <path
        d="M3 16.0001C3 15.503 3.38921 15.1001 3.86932 15.1001H11.1307C11.6108 15.1001 12 15.503 12 16.0001C12 16.4972 11.6108 16.9001 11.1307 16.9001H3.86932C3.38921 16.9001 3 16.4972 3 16.0001Z"
        fill="white" />
    <path
        d="M21.4933 16.9647C22.1689 16.5176 22.1689 15.4827 21.4933 15.0355L15.6632 11.1773C14.9407 10.6992 14 11.2448 14 12.1419V19.8583C14 20.7555 14.9407 21.301 15.6632 20.8229L21.4933 16.9647Z"
        fill="white" />
</svg>
